HIERARCHY
ROOT Hips
{
	OFFSET 0.000000 0.000000 0.000000 
	CHANNELS 6 Xposition Yposition Zposition Zrotation Yrotation Xrotation
	JOINT LeftUpLeg
	{
		OFFSET 1.363060 -1.794630 0.839290 
		CHANNELS 3 Zrotation Yrotation Xrotation
		JOINT LeftLeg
		{
			OFFSET 2.448110 -6.726130 0.000000 
			CHANNELS 3 Zrotation Yrotation Xrotation
			JOINT LeftFoot
			{
				OFFSET 2.562200 -7.039590 0.000000 
				CHANNELS 3 Zrotation Yrotation Xrotation
				JOINT LeftToeBase
				{
					OFFSET 0.157640 -0.433110 2.322550 
					CHANNELS 3 Zrotation Yrotation Xrotation
					End Site
					{
						OFFSET 0.000000 0.000000 0.000000 
					}
				}
			}
		}
	}
	JOINT RightUpLeg
	{
		OFFSET -1.305520 -1.794630 0.839290 
		CHANNELS 3 Zrotation Yrotation Xrotation
		JOINT RightLeg
		{
			OFFSET -2.542530 -6.985550 0.000000 
			CHANNELS 3 Zrotation Yrotation Xrotation
			JOINT RightFoot
			{
				OFFSET -2.568260 -7.056230 0.000000 
				CHANNELS 3 Zrotation Yrotation Xrotation
				JOINT RightToeBase
				{
					OFFSET -0.164730 -0.452590 2.363150 
					CHANNELS 3 Zrotation Yrotation Xrotation
					End Site
					{
						OFFSET 0.000000 0.000000 0.000000 
					}
				}
			}
		}
	}
	JOINT Spine
	{
		OFFSET 0.028270 2.035590 -0.193380 
		CHANNELS 3 Zrotation Yrotation Xrotation
		JOINT Spine1
		{
			OFFSET 0.056720 2.048850 -0.042750 
			CHANNELS 3 Zrotation Yrotation Xrotation
			JOINT Neck1
			{
				OFFSET -0.054170 1.746240 0.172020 
				CHANNELS 3 Zrotation Yrotation Xrotation
				JOINT Head
				{
					OFFSET 0.104070 1.761360 -0.123970 
					CHANNELS 3 Zrotation Yrotation Xrotation
					End Site
					{
						OFFSET 0.000000 0.000000 0.000000 
					}
				}
			}
			JOINT LeftArm
			{
				OFFSET 3.362410 1.200890 -0.311210 
				CHANNELS 3 Zrotation Yrotation Xrotation
				JOINT LeftForeArm
				{
					OFFSET 4.983000 -0.000000 -0.000000 
					CHANNELS 3 Zrotation Yrotation Xrotation
					JOINT LeftHand
					{
						OFFSET 3.483560 -0.000000 -0.000000 
						CHANNELS 3 Zrotation Yrotation Xrotation
						JOINT LeftHandIndex1
						{
							OFFSET 0.715260 -0.000000 -0.000000 
							CHANNELS 3 Zrotation Yrotation Xrotation
							End Site
							{
								OFFSET 0.000000 0.000000 0.000000 
							}
						}
					}
				}
			}
			JOINT RightArm
			{
				OFFSET -3.136600 1.374050 -0.404650 
				CHANNELS 3 Zrotation Yrotation Xrotation
				JOINT RightForeArm
				{
					OFFSET -5.241900 -0.000000 -0.000000 
					CHANNELS 3 Zrotation Yrotation Xrotation
					JOINT RightHand
					{
						OFFSET -3.444170 -0.000000 -0.000000 
						CHANNELS 3 Zrotation Yrotation Xrotation
						JOINT RightHandIndex1
						{
							OFFSET -0.622530 -0.000000 -0.000000 
							CHANNELS 3 Zrotation Yrotation Xrotation
							End Site
							{
								OFFSET 0.000000 0.000000 0.000000 
							}
						}
					}
				}
			}
		}
	}
}
MOTION
Frames: 6
Frame Time: 0.041667
1.429867 17.273023 37.366419 -175.082302 -1.473688 -176.241508 -17.244311 -14.214191 -30.036691 0.843473 12.229502 29.321445 1.318125 14.458580 22.663714 0.221700 -3.030900 -8.364700 39.614901 -2.762476 -0.483051 -6.228878 -15.314732 51.739000 0.090879 -18.821888 6.769517 -1.287700 7.190400 -20.280800 -0.067112 5.131467 -3.183822 -1.524654 2.677999 10.915504 6.385703 -7.108649 13.208887 -0.421100 -3.048900 24.071000 -73.949325 33.675254 51.799017 103.299750 -61.755129 -66.914131 1.579184 -0.548975 21.367004 -7.125000 0.000000 0.000000 87.711824 -15.570222 47.303818 -100.672923 59.605698 -57.307135 0.017683 -1.654145 11.230894 7.125000 0.000000 0.000000 
1.420783 17.176567 37.102137 -175.196294 -1.500074 -176.845601 -18.136040 -13.302738 -29.222414 1.176679 12.662533 30.846439 0.426816 14.019574 16.758479 0.101000 -2.049000 -5.641100 39.059575 -2.970392 -1.542128 -7.321060 -16.130759 55.625044 0.286378 -19.766892 5.159036 -1.398700 7.481700 -21.150400 0.003039 4.792826 -3.155130 -1.345747 2.474236 10.846430 6.327205 -6.738254 13.253794 -0.470000 -2.931400 24.117700 -74.725743 33.608064 51.306725 102.537777 -61.869595 -66.218951 1.581306 -0.531846 21.390147 -7.125000 0.000000 0.000000 87.483048 -15.690116 47.178554 -100.060314 59.750133 -56.794549 0.106100 -1.613897 10.049996 7.125000 0.000000 0.000000 
1.413863 17.072433 36.841208 -175.331330 -1.508831 -177.449566 -19.009721 -12.346354 -28.241281 1.542208 13.100031 32.476847 0.043689 14.040303 14.049104 0.064600 -1.640300 -4.512600 38.479574 -3.102781 -2.594821 -8.411280 -16.842087 59.336603 0.437109 -20.433156 3.971467 -1.527100 7.802500 -22.115700 0.029982 4.532835 -3.129649 -1.354829 2.331061 10.737667 6.311455 -6.576504 13.346814 -0.521300 -2.866600 24.246500 -74.971741 33.401746 51.255938 101.931836 -61.928824 -65.684670 1.596801 -0.498554 21.372483 -7.125000 0.000000 0.000000 87.702832 -15.994970 46.425147 -99.110052 60.016680 -55.880635 0.073550 -1.578738 10.899873 7.125000 0.000000 0.000000 
1.408564 17.009931 36.587956 -175.656384 -1.643265 -177.984551 -19.724911 -12.600210 -27.373751 1.867661 13.530961 33.925118 -0.317466 15.329824 11.991460 0.040100 -1.293100 -3.555600 37.685727 -3.060664 -3.905784 -9.477503 -17.460988 62.814886 0.500954 -20.440675 3.245022 -1.634700 8.059600 -22.895300 0.042054 4.145602 -3.105439 -1.455919 2.132308 10.586672 6.421621 -6.347440 13.361960 -0.446400 -2.758600 24.169000 -75.401216 32.872494 51.018352 100.933050 -62.019043 -64.828272 1.596475 -0.480626 21.299059 -7.125000 0.000000 0.000000 87.908799 -15.959021 45.971754 -97.307622 60.474648 -54.205623 0.100950 -1.664028 10.953913 7.125000 0.000000 0.000000 
1.403482 16.919855 36.338489 -176.004499 -1.711642 -178.533656 -20.556909 -12.441411 -26.467966 2.203752 13.929192 35.370165 -0.698428 16.331037 9.379016 0.015700 -0.808800 -2.222800 36.855502 -2.999404 -5.115544 -10.579495 -18.010643 66.303194 0.585353 -20.563288 2.337561 -1.746900 8.317600 -23.683000 0.046433 3.833010 -3.080392 -1.508289 1.962338 10.431937 6.501534 -6.204102 13.396073 -0.407700 -2.688800 24.137000 -75.731712 32.325872 50.907667 99.897332 -62.103989 -63.938645 1.596910 -0.452603 21.250585 -7.125000 0.000000 0.000000 88.204634 -16.067545 45.317442 -95.861886 60.835385 -52.903897 0.123059 -1.708194 11.095346 7.125000 0.000000 0.000000 
1.400238 16.831401 36.096591 -176.500262 -1.763255 -179.046444 -21.497565 -12.359679 -25.512261 2.502929 14.265777 36.630086 -1.026278 17.418853 7.152215 0.003800 -0.395500 -1.086800 35.857970 -2.792148 -6.441725 -11.687437 -18.494369 69.708421 0.634782 -20.435534 1.591238 -1.825500 8.492800 -24.221200 0.029212 3.546904 -3.043377 -1.551320 1.797017 10.319859 6.638531 -6.144178 13.430159 -0.298800 -2.657800 24.072200 -76.004520 31.533326 50.882029 98.649609 -62.194068 -62.874924 1.590921 -0.418353 21.210892 -7.125000 0.000000 0.000000 88.620835 -16.106956 44.492641 -94.207964 61.239436 -51.453948 0.144206 -1.768577 11.318304 7.125000 0.000000 0.000000 
